<?xml version="1.0" encoding="UTF-8"?>
<svg width="12px" height="12px" viewBox="0 0 12 12" version="1.1" xmlns="http://www.w3.org/2000/svg" xmlns:xlink="http://www.w3.org/1999/xlink">
    <!-- Generator: Sketch 62 (91390) - https://sketch.com -->
    <title>icon-search</title>
    <desc>Created with Sketch.</desc>
    <g id="Symbols" stroke="none" stroke-width="1" fill="none" fill-rule="evenodd">
        <g id="sidebar-on" transform="translate(-23.000000, -34.000000)" fill="#FFFFFF" fill-rule="nonzero">
            <g id="sidebar">
                <g id="search" transform="translate(15.000000, 25.000000)">
                    <path d="M19.9267344,20.2197187 L16.4408281,16.7338125 C17.102,15.9175547 17.5,14.8798359 17.5,13.7500078 C17.5,11.1308672 15.369125,9 12.7499844,9 C10.1308437,9 8,11.1308672 8,13.7500078 C8,16.3691484 10.1308672,18.5000156 12.7500078,18.5000156 C13.8798359,18.5000156 14.9175547,18.102 15.7338125,17.4408516 L19.2197187,20.9267578 C19.3173828,21.024375 19.4756328,21.024375 19.5732969,20.9267578 L19.9267578,20.5732734 C20.024375,20.4756328 20.024375,20.3173359 19.9267344,20.2197187 Z M12.7500078,17.5000078 C10.6821406,17.5000078 9.00000781,15.817875 9.00000781,13.7500078 C9.00000781,11.6821406 10.6821406,10.0000078 12.7500078,10.0000078 C14.817875,10.0000078 16.5000078,11.6821406 16.5000078,13.7500078 C16.5000078,15.817875 14.817875,17.5000078 12.7500078,17.5000078 Z" id="icon-search"></path>
                </g>
            </g>
        </g>
    </g>
</svg>