<?xml version="1.0" encoding="UTF-8"?>
<svg width="8px" height="14px" viewBox="0 0 8 14" version="1.1" xmlns="http://www.w3.org/2000/svg" xmlns:xlink="http://www.w3.org/1999/xlink">
    <!-- Generator: Sketch 62 (91390) - https://sketch.com -->
    <title>icon-arrow-right</title>
    <desc>Created with Sketch.</desc>
    <g id="Page-1" stroke="none" stroke-width="1" fill="none" fill-rule="evenodd">
        <g id="Portals" transform="translate(-1259.000000, -193.000000)" fill="#4A4A4A" fill-rule="nonzero">
            <g id="Group-2" transform="translate(332.000000, 155.000000)">
                <path d="M934.782789,44.2772673 L928.722952,38.2175417 C928.582796,38.0772743 928.395699,38 928.196202,38 C927.996706,38 927.809609,38.0772743 927.669453,38.2175417 L927.223188,38.6636958 C926.9328,38.9544156 926.9328,39.4269184 927.223188,39.7171954 L932.311781,44.8057884 L927.217542,49.9000276 C927.077385,50.040295 927,50.2272812 927,50.4266667 C927,50.6262736 927.077385,50.8132598 927.217542,50.9536378 L927.663807,51.3996813 C927.804074,51.5399486 927.99106,51.617223 928.190556,51.617223 C928.390053,51.617223 928.577149,51.5399486 928.717306,51.3996813 L934.782789,45.3344202 C934.923277,45.1937101 935.000441,45.0058382 935,44.8061206 C935.000441,44.6056279 934.923277,44.4178668 934.782789,44.2772673 Z" id="icon-arrow-right"></path>
            </g>
        </g>
    </g>
</svg>