<?xml version="1.0" encoding="UTF-8"?>
<svg width="59px" height="55px" viewBox="0 0 59 55" version="1.1" xmlns="http://www.w3.org/2000/svg" xmlns:xlink="http://www.w3.org/1999/xlink">
    <!-- Generator: Sketch 64 (93537) - https://sketch.com -->
    <title>Group 2</title>
    <desc>Created with Sketch.</desc>
    <g id="Page-1" stroke="none" stroke-width="1" fill="none" fill-rule="evenodd">
        <g id="Portals-Start-Page">
            <g id="nav">
                <g id="Group-2">
                    <rect id="Rectangle-Copy-2" fill="#0C63FF" x="0" y="0" width="59" height="55"></rect>
                    <g id="icon" transform="translate(12.000000, 8.000000)" fill="#FFFFFF">
                        <path d="M18.5625,15.9630335 C17.430986,15.9630335 16.5099721,14.8578169 16.5099721,13.5 C16.5099721,12.1421831 17.430986,11.0369665 18.5625,11.0369665 C19.6946172,11.0369665 20.6150279,12.1421831 20.6150279,13.5 C20.6150279,14.8578169 19.6946172,15.9630335 18.5625,15.9630335 M18.5625,10.125 C17.011795,10.125 15.75,11.639154 15.75,13.5 C15.75,15.360846 17.011795,16.875 18.5625,16.875 C20.113205,16.875 21.375,15.360846 21.375,13.5 C21.375,11.639154 20.113205,10.125 18.5625,10.125" id="Shape"></path>
                        <path d="M18.5441459,12.375 C18.2435701,12.375 18,12.6185701 18,12.9191459 C18,13.2197217 18.2435701,13.4632917 18.5441459,13.4632917 C18.884453,13.4632917 19.1608445,13.740547 19.1608445,14.0799904 C19.1608445,14.3805662 19.4052783,14.625 19.7049904,14.625 C20.0055662,14.625 20.25,14.3805662 20.25,14.0799904 C20.25,13.1402591 19.4847409,12.375 18.5441459,12.375" id="Shape"></path>
                        <path d="M25.0656759,31.0542028 L22.029426,27.2706645 C22.2246915,25.7037975 22.4058259,24.12907 22.5670484,22.6191919 L24.589074,25.843322 C24.9005995,26.3437762 25.0656759,26.9208706 25.0656759,27.512376 L25.0656759,31.0542028 L25.0656759,31.0542028 Z M20.2495553,28.7163482 L18.9674832,28.7163482 L18.9674832,21.6438304 C18.9674832,21.4158748 18.7863488,21.2311522 18.5621788,21.2311522 C18.3392936,21.2311522 18.1575168,21.4158748 18.1575168,21.6438304 L18.1575168,28.7163482 L16.876087,28.7163482 C16.4309588,28.7163482 16.0519895,28.3757249 15.994823,27.9250542 C15.7122019,25.7155883 15.4552736,23.4655097 15.2433078,21.3877079 C15.2433078,21.3726418 15.2413808,21.3569208 15.2388115,21.3418547 C14.8784696,17.7980628 14.6498035,14.7586553 14.6498035,13.2789093 C14.6498035,11.6799452 14.9940874,10.1969239 15.6736627,8.84884188 L18.9944607,8.84884188 C19.2179883,8.84884188 19.3991227,8.66411927 19.3991227,8.43550866 C19.3991227,8.2075531 19.2179883,8.02283049 18.9944607,8.02283049 L16.1431991,8.02283049 C16.3140564,7.75360711 16.4996871,7.49027914 16.6994488,7.23350161 C17.4490371,6.27189596 18.2069755,5.66728969 18.5621788,5.40985711 C19.0040955,5.73017398 20.0677786,6.59090274 20.9747354,8.02283049 L20.7210187,8.02283049 C20.4974911,8.02283049 20.3163567,8.2075531 20.3163567,8.43550866 C20.3163567,8.66411927 20.4974911,8.84884188 20.7210187,8.84884188 L21.4423449,8.84884188 C22.0352069,10.0239921 22.4751965,11.4971877 22.4751965,13.2789093 C22.4751965,14.7586553 22.2465304,17.7980628 21.8861885,21.3418547 C21.8836192,21.3569208 21.8823345,21.3719868 21.8816922,21.3877079 C21.6697264,23.4655097 21.4127981,25.7155883 21.1308193,27.9250542 C21.0730105,28.3757249 20.6940412,28.7163482 20.2495553,28.7163482 L20.2495553,28.7163482 Z M12.0593241,27.513031 C12.0593241,26.9208706 12.2244005,26.3437762 12.535926,25.8439771 L14.5585939,22.6191919 C14.7191741,24.1303801 14.9009509,25.7037975 15.095574,27.2706645 L12.0593241,31.0542028 L12.0593241,27.513031 Z M25.2712185,25.3992017 L22.7032204,21.3051722 C23.0590661,17.7823417 23.2845206,14.7625856 23.2845206,13.2782543 C23.2845206,10.2021643 22.0621843,7.99859384 21.0376828,6.69112458 C19.9251834,5.27360781 18.8171802,4.58712095 18.7709331,4.55895402 C18.6424689,4.48034866 18.4825311,4.48034866 18.3540669,4.55895402 C18.3078198,4.58712095 17.1998166,5.27360781 16.0879595,6.69112458 C15.0628157,7.99859384 13.8404794,10.2021643 13.8404794,13.2782543 C13.8404794,14.7625856 14.0659339,17.7823417 14.4217796,21.3051722 L11.8531391,25.3998568 C11.4587542,26.03263 11.25,26.7630048 11.25,27.513031 L11.25,32.2116668 C11.25,32.3859087 11.3572676,32.5411543 11.5191324,32.6001083 C11.5634525,32.6158294 11.6090573,32.624345 11.654662,32.624345 C11.7741337,32.624345 11.8897514,32.5706313 11.9681145,32.4730296 L15.2670737,28.361969 C15.4957398,29.0536962 16.1380605,29.5430146 16.876087,29.5430146 L18.1575168,29.5430146 L18.1575168,32.2123218 C18.1575168,32.4402774 18.3392936,32.625 18.5621788,32.625 C18.7863488,32.625 18.9674832,32.4402774 18.9674832,32.2123218 L18.9674832,29.5430146 L20.2495553,29.5430146 C20.9869395,29.5430146 21.6292602,29.0536962 21.8579263,28.361969 L25.1568855,32.4730296 C25.2358909,32.5706313 25.3515086,32.624345 25.470338,32.624345 C25.5159427,32.624345 25.5615475,32.6158294 25.6065099,32.6001083 C25.7670901,32.5411543 25.875,32.3859087 25.875,32.2116668 L25.875,27.513031 C25.875,26.7630048 25.6662458,26.03263 25.2712185,25.3992017 L25.2712185,25.3992017 Z" id="Shape"></path>
                        <g id="Group">
                            <path d="M18.177378,39.702185 C17.4851812,39.702185 16.7929843,39.5223269 16.1755133,39.1632744 L2.66587561,31.2926568 C1.42437858,30.569906 0.653522985,29.2199746 0.653522985,27.7691634 L0.653522985,12.0511572 C0.653522985,10.6010097 1.42437858,9.25107834 2.66587561,8.52766379 L16.1755133,0.657709924 C17.4104554,-0.0610588426 18.9443007,-0.0610588426 20.1792428,0.657709924 L33.6888805,8.52766379 C34.9303775,9.25107834 35.7012331,10.6010097 35.7012331,12.0511572 L35.7012331,27.7698271 C35.7012331,29.2206383 34.9303775,30.5705697 33.6888805,31.2933205 L20.1792428,39.1632744 C19.5617718,39.5223269 18.8702304,39.702185 18.177378,39.702185 M16.6337004,1.46342117 L3.12406274,9.33337504 C2.16704813,9.8915325 1.5725192,10.9328512 1.5725192,12.0511572 L1.5725192,27.7698271 C1.5725192,28.8887968 2.16704813,29.9294518 3.12406274,30.4876093 L16.6343559,38.3575631 C17.5861266,38.9124022 18.7699405,38.9117385 19.7223667,38.3575631 L33.2320043,30.4876093 C34.1890189,29.9294518 34.7835479,28.8887968 34.7835479,27.7698271 L34.7835479,12.0511572 C34.7835479,10.9328512 34.1890189,9.8915325 33.2320043,9.33337504 L19.7217112,1.46342117 C19.2451704,1.18600165 18.7109465,1.04729189 18.177378,1.04729189 C17.6438096,1.04729189 17.1095857,1.18600165 16.6337004,1.46342117 Z" id="Shape"></path>
                        </g>
                    </g>
                </g>
            </g>
        </g>
    </g>
</svg>