<?xml version="1.0" encoding="utf-8"?>
<svg width="12px" height="12px" viewBox="0 0 12 12" version="1.1" xmlns:xlink="http://www.w3.org/1999/xlink" xmlns="http://www.w3.org/2000/svg">
  <desc>Created with Lunacy</desc>
  <path d="M8.44083 7.73381L11.9267 11.2197C12.0244 11.3173 12.0244 11.4756 11.9268 11.5733L11.5733 11.9268C11.4756 12.0244 11.3174 12.0244 11.2197 11.9268L7.73381 8.44085C6.91755 9.102 5.87984 9.50002 4.75001 9.50002C2.13087 9.50002 0 7.36915 0 4.75001C0 2.13087 2.13084 0 4.74998 0C7.36912 0 9.49999 2.13087 9.49999 4.75001C9.49999 5.87984 9.102 6.91755 8.44083 7.73381ZM1 4.75002C1 6.81788 2.68213 8.50002 4.75 8.50002C6.81787 8.50002 8.5 6.81788 8.5 4.75002C8.5 2.68215 6.81787 1.00002 4.75 1.00002C2.68213 1.00002 1 2.68215 1 4.75002Z" id="Shape" fill="#4A4A4A" fill-rule="evenodd" stroke="none" />
</svg>