<?xml version="1.0" encoding="UTF-8"?>
<svg width="78px" height="78px" viewBox="0 0 78 78" version="1.1" xmlns="http://www.w3.org/2000/svg" xmlns:xlink="http://www.w3.org/1999/xlink">
    <!-- Generator: Sketch 62 (91390) - https://sketch.com -->
    <title>icon-drag-drop</title>
    <desc>Created with Sketch.</desc>
    <g id="Page-1" stroke="none" stroke-width="1" fill="none" fill-rule="evenodd">
        <g id="Main" transform="translate(-773.000000, -415.000000)" fill="#4A4A4A" fill-rule="nonzero">
            <g id="Group-5" transform="translate(685.000000, 415.000000)">
                <g id="icon-drag-drop" transform="translate(88.000000, 0.000000)">
                    <path d="M69.8333844,29 L53.5,29 C52.5984,29 51.8666156,29.7317844 51.8666156,30.6333844 C51.8666156,31.5349844 52.5984,32.2667687 53.5,32.2667687 L69.8333844,32.2667687 C72.5349688,32.2667687 74.7333844,34.4651844 74.7333844,37.1667688 L74.7333844,69.8333844 C74.7333844,72.5349688 72.5349688,74.7333844 69.8333844,74.7333844 L37.1666156,74.7333844 C34.4650313,74.7333844 32.2666156,72.5349688 32.2666156,69.8333844 L32.2666156,56.7667688 C32.2666156,55.8651688 31.5348312,55.1333844 30.6332313,55.1333844 C29.7316312,55.1333844 29,55.8650156 29,56.7666156 L29,69.8332313 C29,74.3348 32.6652,78 37.1666156,78 L69.8332312,78 C74.3348,78 78,74.3348 78,69.8333844 L78,37.1666156 C78,32.6652 74.3348,29 69.8333844,29 Z" id="Path"></path>
                    <path d="M24.3333333,46 L22.6666667,46 C21.7466954,46 21,46.6720574 21,47.5000703 C21,48.3280833 21.7466954,49 22.6666667,49 L24.3333333,49 C25.2533046,49 26,48.3279426 26,47.4999297 C26,46.6719167 25.2533046,46 24.3333333,46 Z" id="Path"></path>
                    <g id="Group">
                        <path d="M9.60721563,0 L8.16661563,0 C7.38598437,0 6.615,0.111015625 5.87341562,0.326615625 C5.0078,0.581415625 4.51121562,1.4896 4.7628,2.35521563 C4.97181562,3.0674 5.6252,3.528 6.3308,3.528 C6.48438438,3.528 6.63781563,3.5084 6.7914,3.46261563 C7.23561562,3.332 7.69621563,3.26661563 8.16661563,3.26661563 L9.60721563,3.26661563 C10.5120313,3.26661563 11.2406,2.53483125 11.2406,1.63323125 C11.2406,0.73163125 10.5088156,0 9.60721563,0 Z" id="Path"></path>
                        <path d="M3.26661563,39.3862 L3.26661563,36.0836 C3.26661563,35.182 2.53483125,34.4502156 1.63323125,34.4502156 C0.73163125,34.4502156 0,35.182 0,36.0836 L0,39.3862 C0,40.2878 0.731784375,41.0195844 1.63338438,41.0195844 C2.53498438,41.0195844 3.26661563,40.2878 3.26661563,39.3862 Z" id="Path"></path>
                        <path d="M1.63338438,31.1117844 C2.53498438,31.1117844 3.26676875,30.38 3.26676875,29.4784 L3.26676875,26.1758 C3.26676875,25.2742 2.53498438,24.5424156 1.63338438,24.5424156 C0.731784375,24.5424156 0,25.2742 0,26.1758 L0,29.4784 C0,30.38 0.731784375,31.1117844 1.63338438,31.1117844 Z" id="Path"></path>
                        <path d="M1.63338437,11.2994 C2.53498438,11.2994 3.26676875,10.5676156 3.26676875,9.66601562 L3.26676875,8.16661563 C3.26676875,7.7126 3.32878438,7.26501563 3.44975312,6.83381562 C3.69475313,5.96483125 3.1917375,5.06323125 2.32275313,4.81823125 C1.46035313,4.56021563 0.55216875,5.07303125 0.30716875,5.94523125 C0.104584375,6.66721562 0,7.41538438 0,8.16661563 L0,9.66601562 C0,10.5676156 0.731784375,11.2994 1.63338437,11.2994 Z" id="Path"></path>
                        <path d="M1.63338438,21.2072 C2.53498438,21.2072 3.26676875,20.4754156 3.26676875,19.5738156 L3.26676875,16.2712156 C3.26676875,15.3696156 2.53498438,14.6378312 1.63338438,14.6378312 C0.731784375,14.6378312 0,15.3696156 0,16.2712156 L0,19.5738156 C0,20.4754156 0.731784375,21.2072 1.63338438,21.2072 Z" id="Path"></path>
                        <path d="M6.82738438,45.5471844 C6.0368,45.3217844 5.30516875,44.8938 4.71716875,44.3091687 C4.08016875,43.6721687 3.04458438,43.6787531 2.40758438,44.3157531 C1.77058438,44.9559687 1.7738,45.9915531 2.41416875,46.6253375 C3.39416875,47.6021219 4.61258438,48.3141531 5.93558438,48.6899219 C6.0858,48.7323375 6.23616875,48.7519375 6.38316875,48.7519375 C7.09198438,48.7519375 7.74858438,48.2847531 7.95116875,47.5661375 C8.19938437,46.697 7.69621563,45.7921844 6.82738438,45.5471844 Z" id="Path"></path>
                        <path d="M47.1020156,7.9576 C47.2522313,7.9576 47.4058156,7.938 47.5594,7.889 C48.4250156,7.6342 48.9248156,6.72938438 48.6700156,5.86361563 C48.2846,4.54383125 47.5594,3.332 46.5760313,2.35843125 C45.9358156,1.72464688 44.9002313,1.72801563 44.2664469,2.37144688 C43.6326625,3.0116625 43.6392469,4.04724688 44.2794625,4.68103125 C44.8674625,5.26903125 45.3052469,5.99423125 45.5338625,6.78144688 C45.7431844,7.49378438 46.3932,7.9576 47.1020156,7.9576 Z" id="Path"></path>
                        <path d="M39.3274,0 L36.0248,0 C35.1232,0 34.3914156,0.731784375 34.3914156,1.63338438 C34.3914156,2.53498438 35.1232,3.26676875 36.0248,3.26676875 L39.3274,3.26676875 C40.229,3.26676875 40.9607844,2.53498438 40.9607844,1.63338438 C40.9607844,0.731784375 40.229,0 39.3274,0 Z" id="Path"></path>
                        <path d="M16.2647844,45.7333844 L12.9621844,45.7333844 C12.0605844,45.7333844 11.3288,46.4651687 11.3288,47.3667687 C11.3288,48.2683687 12.0605844,49 12.9621844,49 L16.2647844,49 C17.1663844,49 17.8981687,48.2682156 17.8981687,47.3666156 C17.8981687,46.4650156 17.1663844,45.7333844 16.2647844,45.7333844 Z" id="Path"></path>
                        <path d="M47.3666156,11.27 C46.4650156,11.27 45.7332313,12.0017844 45.7332313,12.9033844 L45.7332313,16.2059844 C45.7332313,17.1075844 46.4650156,17.8393688 47.3666156,17.8393688 C48.2682156,17.8393688 49,17.1075844 49,16.2059844 L49,12.9033844 C49,11.9984156 48.2682156,11.27 47.3666156,11.27 Z" id="Path"></path>
                        <path d="M29.4228156,0 L26.1202156,0 C25.2154,0 24.4868313,0.731784375 24.4868313,1.63338438 C24.4868313,2.53498438 25.2186156,3.26676875 26.1202156,3.26676875 L29.4196,3.26676875 C30.3244156,3.26676875 31.0562,2.53498438 31.0562,1.63338438 C31.0562,0.731784375 30.3244156,0 29.4228156,0 Z" id="Path"></path>
                        <path d="M19.5150156,0 L16.2124156,0 C15.3108156,0 14.5790312,0.731784375 14.5790312,1.63338438 C14.5790312,2.53498438 15.3108156,3.26676875 16.2124156,3.26676875 L19.5150156,3.26676875 C20.4166156,3.26676875 21.1484,2.53498438 21.1484,1.63338438 C21.1484,0.731784375 20.4166156,0 19.5150156,0 Z" id="Path"></path>
                    </g>
                    <path d="M47.5,21 C46.6720259,21 46,21.7467187 46,22.6667188 L46,24.3332812 C46,25.2532813 46.6720259,26 47.5,26 C48.3279741,26 49,25.2532813 49,24.3332812 L49,22.6665625 C49,21.7465625 48.3279741,21 47.5,21 Z" id="Path"></path>
                    <path d="M52.8776011,28.5625937 L47.9027901,23.491814 C45.9513499,21.5027287 42.7707627,21.5027287 40.8193225,23.491814 C40.2351391,24.0872668 39.8244205,24.7971177 39.590025,25.5495995 C37.8407847,24.9280774 35.7482258,25.3893501 34.4002261,26.763354 C33.6652955,27.5124622 33.2094429,28.4383813 33.0265001,29.4066247 C31.4955575,29.1874894 29.897215,29.7174624 28.7834604,30.8525491 C27.7178485,31.9387175 27.2332607,33.3944562 27.3295464,34.8175317 C26.2479872,34.9679667 25.2497754,35.4684967 24.4667019,36.2668298 C23.5199427,37.2318528 23,38.5143075 23,39.8784971 C23,41.2426867 23.5199427,42.5283617 24.4667019,43.4901644 L25.9045181,44.9557175 L25.9045181,50.8214566 C25.904819,55.3294468 29.5059039,59 33.9285766,59 L40.5080489,59 C50.152716,59 58,51.0013345 58,41.1706128 C58,36.4106708 56.1802004,31.9321235 52.8776011,28.5625937 Z M40.5080489,55.7286133 L33.9285766,55.7286133 C31.2742509,55.7286133 29.114292,53.5269868 29.114292,50.8214566 L29.114292,48.2272575 L32.7955648,51.9795456 C33.4214218,52.6174759 34.4388908,52.6174759 35.0647478,51.9795456 C35.3760214,51.6588935 35.5333884,51.2402517 35.5333884,50.8214566 C35.5333884,50.4026614 35.3761719,49.9840196 35.0647478,49.6633676 L26.7360354,41.1739865 C26.395876,40.8304855 26.2096234,40.3659925 26.2096234,39.8784971 C26.2096234,39.3910018 26.3957256,38.929729 26.7360354,38.5830077 C27.4165044,37.8894118 28.6008184,37.8894118 29.281137,38.5830077 L32.7955648,42.1652321 C33.4214218,42.8031625 34.4388908,42.8031625 35.0647478,42.1652321 C35.3760214,41.8445801 35.5333884,41.4259383 35.5333884,41.0071431 C35.5333884,40.588348 35.3761719,40.1697062 35.0647478,39.8522745 L31.0527938,35.7629261 C30.3499082,35.0464812 30.3499082,33.8851719 31.0527938,33.168727 C31.7332628,32.4751311 32.9175769,32.4751311 33.5978955,33.168727 L36.0050378,35.6223054 C36.6308948,36.2602358 37.6483638,36.2602358 38.2742208,35.6223054 C38.5854944,35.3016534 38.7428613,34.8830116 38.7428613,34.4642164 C38.7428613,34.0454212 38.5856448,33.6267794 38.2742208,33.3093477 L36.6694091,31.6735777 C35.9665235,30.9571328 35.9665235,29.7958235 36.6694091,29.0793786 C37.3498781,28.3857827 38.5341922,28.3857827 39.2145108,29.0793786 L40.8193225,30.7151487 C41.4451795,31.353079 42.4626485,31.353079 43.0885055,30.7151487 C43.3997791,30.3944966 43.557146,29.9758548 43.557146,29.5570597 C43.557146,29.1382645 43.3999295,28.7196227 43.0853461,28.3989707 C42.7451868,28.0554697 42.5589342,27.594197 42.5589342,27.1034813 C42.5589342,26.6127657 42.7483462,26.1514929 43.0885055,25.807992 C43.791391,25.0915471 44.9307216,25.0915471 45.6336071,25.807992 L50.6084181,30.8787717 C53.3044175,33.6267794 54.7903766,37.284298 54.7903766,41.1707662 C54.7903766,49.1987212 48.3842186,55.7286133 40.5080489,55.7286133 Z" id="Shape"></path>
                </g>
            </g>
        </g>
    </g>
</svg>