<?xml version="1.0" encoding="UTF-8"?>
<svg xmlns="http://www.w3.org/2000/svg" xmlns:xlink="http://www.w3.org/1999/xlink" width="16pt" height="16pt" viewBox="0 0 16 16" version="1.1">
<g id="surface1">
<path style=" stroke:none;fill-rule:nonzero;fill:rgb(95.686275%,26.27451%,21.176471%);fill-opacity:1;" d="M 8 0 C 3.589844 0 0 3.589844 0 8 C 0 12.410156 3.589844 16 8 16 C 12.410156 16 16 12.410156 16 8 C 16 3.589844 12.410156 0 8 0 Z M 8 0 "/>
<path style=" stroke:none;fill-rule:nonzero;fill:rgb(98.039216%,98.039216%,98.039216%);fill-opacity:1;" d="M 10.945312 10.003906 C 11.207031 10.265625 11.207031 10.683594 10.945312 10.945312 C 10.816406 11.074219 10.644531 11.140625 10.472656 11.140625 C 10.304688 11.140625 10.132812 11.074219 10.003906 10.945312 L 8 8.941406 L 5.996094 10.945312 C 5.867188 11.074219 5.695312 11.140625 5.523438 11.140625 C 5.355469 11.140625 5.183594 11.074219 5.054688 10.945312 C 4.792969 10.683594 4.792969 10.265625 5.054688 10.003906 L 7.058594 8 L 5.054688 5.996094 C 4.792969 5.734375 4.792969 5.316406 5.054688 5.054688 C 5.316406 4.792969 5.734375 4.792969 5.996094 5.054688 L 8 7.058594 L 10.003906 5.054688 C 10.265625 4.792969 10.683594 4.792969 10.945312 5.054688 C 11.207031 5.316406 11.207031 5.734375 10.945312 5.996094 L 8.941406 8 Z M 10.945312 10.003906 "/>
</g>
</svg>
