<?xml version="1.0" encoding="UTF-8"?>
<svg width="54px" height="60px" viewBox="0 0 54 60" version="1.1" xmlns="http://www.w3.org/2000/svg" xmlns:xlink="http://www.w3.org/1999/xlink">
    <!-- Generator: Sketch 62 (91390) - https://sketch.com -->
    <title>icon-sr-dark</title>
    <desc>Created with Sketch.</desc>
    <g id="Page-1" stroke="none" stroke-width="1" fill="none" fill-rule="evenodd">
        <g id="Setup" transform="translate(-694.000000, -243.000000)" fill="#4A4A4A">
            <g id="Group-3" transform="translate(473.000000, 191.000000)">
                <g id="Group-2" transform="translate(136.000000, 52.000000)">
                    <g id="icon-sr-dark" transform="translate(85.000000, 0.000000)">
                        <path d="M27.84375,23.9445502 C26.1464789,23.9445502 24.7649582,22.2867253 24.7649582,20.25 C24.7649582,18.2132747 26.1464789,16.5554498 27.84375,16.5554498 C29.5419258,16.5554498 30.9225418,18.2132747 30.9225418,20.25 C30.9225418,22.2867253 29.5419258,23.9445502 27.84375,23.9445502 M27.84375,15.1875 C25.5176925,15.1875 23.625,17.458731 23.625,20.25 C23.625,23.041269 25.5176925,25.3125 27.84375,25.3125 C30.1698075,25.3125 32.0625,23.041269 32.0625,20.25 C32.0625,17.458731 30.1698075,15.1875 27.84375,15.1875" id="Shape"></path>
                        <path d="M27.8162188,18.5625 C27.3653551,18.5625 27,18.9278551 27,19.3787188 C27,19.8295825 27.3653551,20.1949376 27.8162188,20.1949376 C28.3266795,20.1949376 28.7412668,20.6108205 28.7412668,21.1199856 C28.7412668,21.5708493 29.1079175,21.9375 29.5574856,21.9375 C30.0083493,21.9375 30.375,21.5708493 30.375,21.1199856 C30.375,19.7103887 29.2271113,18.5625 27.8162188,18.5625" id="Shape"></path>
                        <path d="M37.5985139,46.5813042 L33.044139,40.9059967 C33.3370372,38.5556963 33.6087389,36.193605 33.8505726,33.9287879 L36.8836109,38.7649831 C37.3508992,39.5156643 37.5985139,40.3813059 37.5985139,41.268564 L37.5985139,46.5813042 L37.5985139,46.5813042 Z M30.374333,43.0745223 L28.4512248,43.0745223 L28.4512248,32.4657455 C28.4512248,32.1238122 28.1795231,31.8467283 27.8432683,31.8467283 C27.5089403,31.8467283 27.2362752,32.1238122 27.2362752,32.4657455 L27.2362752,43.0745223 L25.3141305,43.0745223 C24.6464381,43.0745223 24.0779843,42.5635874 23.9922345,41.8875812 C23.5683028,38.5733825 23.1829104,35.1982646 22.8649617,32.0815618 C22.8649617,32.0589628 22.8620712,32.0353811 22.8582173,32.0127821 C22.3177044,26.6970942 21.9747052,22.137983 21.9747052,19.918364 C21.9747052,17.5199177 22.491131,15.2953859 23.510494,13.2732628 L28.491691,13.2732628 C28.8269824,13.2732628 29.0986841,12.9961789 29.0986841,12.653263 C29.0986841,12.3113297 28.8269824,12.0342457 28.491691,12.0342457 L24.2147986,12.0342457 C24.4710846,11.6304107 24.7495306,11.2354187 25.0491732,10.8502524 C26.1735556,9.40784394 27.3104632,8.50093453 27.8432683,8.11478567 C28.5061432,8.59526097 30.1016678,9.88635411 31.4621031,12.0342457 L31.0815281,12.0342457 C30.7462367,12.0342457 30.474535,12.3113297 30.474535,12.653263 C30.474535,12.9961789 30.7462367,13.2732628 31.0815281,13.2732628 L32.1635173,13.2732628 C33.0528103,15.0359882 33.7127948,17.2457815 33.7127948,19.918364 C33.7127948,22.137983 33.3697956,26.6970942 32.8292827,32.0127821 C32.8254288,32.0353811 32.8235018,32.0579802 32.8225383,32.0815618 C32.5045896,35.1982646 32.1191972,38.5733825 31.696229,41.8875812 C31.6095157,42.5635874 31.0410619,43.0745223 30.374333,43.0745223 L30.374333,43.0745223 Z M18.0889861,41.2695465 C18.0889861,40.3813059 18.3366008,39.5156643 18.8038891,38.7659656 L21.8378909,33.9287879 C22.0787611,36.1955702 22.3514263,38.5556963 22.643361,40.9059967 L18.0889861,46.5813042 L18.0889861,41.2695465 Z M37.9068278,38.0988026 L34.0548306,31.9577583 C34.5885991,26.6735126 34.9267809,22.1438784 34.9267809,19.9173814 C34.9267809,15.3032464 33.0932765,11.9978908 31.5565242,10.0366869 C29.887775,7.91041172 28.2257702,6.88068142 28.1563996,6.83843104 C27.9637034,6.72052299 27.7237966,6.72052299 27.5311004,6.83843104 C27.4617298,6.88068142 25.799725,7.91041172 24.1319393,10.0366869 C22.5942235,11.9978908 20.7607191,15.3032464 20.7607191,19.9173814 C20.7607191,22.1438784 21.0989009,26.6735126 21.6326694,31.9577583 L17.7797087,38.0997851 C17.1881313,39.0489449 16.875,40.1445072 16.875,41.2695465 L16.875,48.3175002 C16.875,48.578863 17.0359013,48.8117314 17.2786986,48.9001625 C17.3451788,48.9237441 17.4135859,48.9365174 17.4819931,48.9365174 C17.6612005,48.9365174 17.8346271,48.8559469 17.9521718,48.7095444 L22.9006105,42.5429535 C23.2436097,43.5805443 24.2070908,44.3145219 25.3141305,44.3145219 L27.2362752,44.3145219 L27.2362752,48.3184827 C27.2362752,48.6604161 27.5089403,48.9375 27.8432683,48.9375 C28.1795231,48.9375 28.4512248,48.6604161 28.4512248,48.3184827 L28.4512248,44.3145219 L30.374333,44.3145219 C31.4804092,44.3145219 32.4438903,43.5805443 32.7868895,42.5429535 L37.7353282,48.7095444 C37.8538364,48.8559469 38.0272629,48.9365174 38.2055069,48.9365174 C38.2739141,48.9365174 38.3423212,48.9237441 38.4097649,48.9001625 C38.6506352,48.8117314 38.8125,48.578863 38.8125,48.3175002 L38.8125,41.2695465 C38.8125,40.1445072 38.4993687,39.0489449 37.9068278,38.0988026 L37.9068278,38.0988026 Z" id="Shape"></path>
                        <g id="Group">
                            <path d="M27.2660671,59.5532776 C26.2277718,59.5532776 25.1894765,59.2834904 24.2632699,58.7449116 L3.99881341,46.9389853 C2.13656787,45.854859 0.980284478,43.8299619 0.980284478,41.6537451 L0.980284478,18.0767358 C0.980284478,15.9015146 2.13656787,13.8766175 3.99881341,12.7914957 L24.2632699,0.986564886 C26.1156831,-0.0915882639 28.4164511,-0.0915882639 30.2688643,0.986564886 L50.5333207,12.7914957 C52.3955663,13.8766175 53.5518496,15.9015146 53.5518496,18.0767358 L53.5518496,41.6547406 C53.5518496,43.8309574 52.3955663,45.8558545 50.5333207,46.9399808 L30.2688643,58.7449116 C29.3426577,59.2834904 28.3053456,59.5532776 27.2660671,59.5532776 M24.9505506,2.19513176 L4.6860941,14.0000626 C3.2505722,14.8372988 2.3587788,16.3992769 2.3587788,18.0767358 L2.3587788,41.6547406 C2.3587788,43.3331951 3.2505722,44.8941777 4.6860941,45.7314139 L24.9515338,57.5363447 C26.3791898,58.3686033 28.1549108,58.3676078 29.58355,57.5363447 L49.8480065,45.7314139 C51.2835284,44.8941777 52.1753218,43.3331951 52.1753218,41.6547406 L52.1753218,18.0767358 C52.1753218,16.3992769 51.2835284,14.8372988 49.8480065,14.0000626 L29.5825668,2.19513176 C28.8677555,1.77900247 28.0664197,1.57093783 27.2660671,1.57093783 C26.4657144,1.57093783 25.6643786,1.77900247 24.9505506,2.19513176 Z" id="Shape"></path>
                        </g>
                    </g>
                </g>
            </g>
        </g>
    </g>
</svg>